<svg xmlns="http://www.w3.org/2000/svg" width="50.489" height="50.215" viewBox="0 0 50.489 50.215">
  <g id="design_Consultancy" data-name="design&amp;Consultancy" transform="translate(-0.012 127.782)">
    <path id="Path_1" data-name="Path 1" d="M27.427-127.158a18.139,18.139,0,0,0-3.275,1.578c-2.288,1.657-4.419,5.484-4.419,8.009v1.1l-7.89.118-7.89.118-1.065,1.1-1.1,1.065-.118,14.2c-.118,14.084-.118,14.2-.907,14.2s-.828.2-.671,2.959c.118,2.6.276,3.077,1.223,4.024l1.065,1.1H48.139l1.065-1.1c.947-.947,1.1-1.42,1.223-4.024.158-2.762.118-2.959-.671-2.959s-.789-.118-.907-14.2l-.118-14.2-1.065-1.026a4.393,4.393,0,0,0-3.235-1.262c-2.17-.158-2.209-.2-2.209-1.46,0-2.052-2.209-5.957-4.221-7.5A11.018,11.018,0,0,0,27.427-127.158Zm6.549,1.46a11.6,11.6,0,0,1,2.525,1.223c.71.552.631.71-2.367,3.708a25.48,25.48,0,0,1-3.472,3.156c-.75,0-8.167-3.275-8.167-3.63a10.728,10.728,0,0,1,1.7-2.052A9.263,9.263,0,0,1,33.976-125.7Zm6.076,5.878a9.858,9.858,0,0,1-3.077,10.928,4.567,4.567,0,0,1-2.012,1.026,19.458,19.458,0,0,1-1.736-4.182l-1.341-4.064,3.275-3.314C38.789-123.055,38.71-123.055,40.051-119.819Zm-13.769,2.249,3.945,1.657,1.46,4.34A22.318,22.318,0,0,1,32.911-107a6.908,6.908,0,0,1-2.328.158,9.492,9.492,0,0,1-9.271-9.626c0-2.052.2-2.722.75-2.722C22.18-119.188,24.073-118.439,26.283-117.571Zm-6.431,3.511c.2.75,0,.789-6.825.789s-7.062.039-7.654.868c-.552.75-.631,2.762-.631,13.808,0,12.664,0,12.94-.789,12.94s-.789-.276-.789-13.572c0-13.1.039-13.572.828-14.6l.789-1.026h7.456C19.3-114.848,19.655-114.809,19.852-114.059Zm26.67.237c.789,1.026.828,1.5.828,14.6,0,13.3,0,13.572-.789,13.572s-.789-.276-.789-12.94c0-14.518-.039-14.676-2.6-14.676-1.46,0-1.46,0-1.1-.947.158-.434.75-.631,1.933-.631C45.377-114.848,45.89-114.651,46.522-113.823ZM21.667-110a12.277,12.277,0,0,0,9.311,5.01,12.11,12.11,0,0,0,9.232-4.932c1.026-1.42,1.5-1.775,2.446-1.775H43.8v27.577L46.285-84l2.446.118.118,1.46a2.555,2.555,0,0,1-.868,2.485L47-78.947H3.519l-.986-.986a2.555,2.555,0,0,1-.868-2.485l.118-1.46L9.752-84c7.693-.079,8.088-.039,9.666.789,1.46.789,2.288.907,5.839.907s4.379-.118,5.8-.868c1.46-.789,2.249-.907,6.431-.907,4.458,0,4.734-.039,4.734-.789s-.276-.789-5.208-.789c-4.576,0-5.4.118-6.431.789-.986.671-1.854.789-5.326.789s-4.34-.118-5.326-.789c-1.065-.71-1.854-.789-7.18-.789H6.714v-26.038H20.483Z" transform="translate(0 0)" fill="#e94d65"/>
    <path id="Path_2" data-name="Path 2" d="M21-77.279v5.721H34.059L33.94-77.2l-.118-5.6-6.391-.118L21-83Zm11.441.2v3.945H22.578v-7.89h9.863Z" transform="translate(-12.708 -27.114)" fill="#e94d65"/>
    <path id="Path_3" data-name="Path 3" d="M29-73.211c0,.71.276.789,3.156.789s3.156-.079,3.156-.789S35.036-74,32.156-74,29-73.921,29-73.211Z" transform="translate(-17.551 -32.564)" fill="#e94d65"/>
    <path id="Path_4" data-name="Path 4" d="M29-65.211c0,.71.276.789,3.156.789s3.156-.079,3.156-.789S35.036-66,32.156-66,29-65.921,29-65.211Z" transform="translate(-17.551 -37.407)" fill="#e94d65"/>
    <path id="Path_5" data-name="Path 5" d="M58-61.211a.708.708,0,0,0,.789.789.708.708,0,0,0,.789-.789A.708.708,0,0,0,58.789-62,.708.708,0,0,0,58-61.211Z" transform="translate(-35.11 -39.829)" fill="#e94d65"/>
    <path id="Path_6" data-name="Path 6" d="M66-61.211c0,.75.276.789,8.088.789s8.088-.039,8.088-.789S81.9-62,74.088-62,66-61.961,66-61.211Z" transform="translate(-39.954 -39.829)" fill="#e94d65"/>
    <path id="Path_7" data-name="Path 7" d="M45.124-53.548a2.4,2.4,0,0,0-1.42,2.367,6.683,6.683,0,0,1-2.13,2.367c-1.657,1.341-2.446,1.7-3.748,1.736C35.7-47,33.368-48.42,33.013-50a2.3,2.3,0,0,0-2.446-2.091,2.848,2.848,0,0,0-2.485,2.446c0,.986-3.117,2.762-4.458,2.525a2.3,2.3,0,0,0-1.933,3.945,2.417,2.417,0,0,0,4.024-1.736c0-.355.671-1.1,1.5-1.657a4.839,4.839,0,0,1,3.472-.907c2.328.118,4.892,1.578,4.892,2.841a2.325,2.325,0,0,0,.71,1.46,2.393,2.393,0,0,0,4.024-1.736c.039-1.46,3.63-4.1,5.721-4.142,1.973-.079,4.142,1.223,4.142,2.485,0,2.052,2.762,3.235,4.064,1.775a2.363,2.363,0,0,0-1.973-3.985c-1.42.158-3.669-1.341-3.669-2.446,0-.789-1.657-2.762-2.249-2.683A5.671,5.671,0,0,0,45.124-53.548Zm1.618,2.17c.039.2-.237.434-.592.513-.434.079-.71-.118-.71-.513C45.44-52.049,46.624-52.089,46.742-51.379Zm-15.5,1.5a1.114,1.114,0,0,1-.276.789c-.355.355-1.341-.513-1.065-.947C30.211-50.59,31.237-50.471,31.237-49.879ZM53.173-46.8a.7.7,0,0,1-1.065.868.758.758,0,0,1,.434-1.3A.932.932,0,0,1,53.173-46.8ZM23.978-45.224a.7.7,0,0,1-1.065.868.758.758,0,0,1,.434-1.3A.932.932,0,0,1,23.978-45.224Zm14.6,0a.7.7,0,0,1-1.065.868.758.758,0,0,1,.434-1.3A.932.932,0,0,1,38.575-45.224Z" transform="translate(-12.687 -44.73)" fill="#e94d65"/>
    <path id="Path_8" data-name="Path 8" d="M12.156-11.329a.945.945,0,0,0,1.815,0c.118-.513-.118-.671-.907-.671S12.038-11.842,12.156-11.329Z" transform="translate(-7.335 -70.103)" fill="#e94d65"/>
    <path id="Path_9" data-name="Path 9" d="M21-11.211a.708.708,0,0,0,.789.789.708.708,0,0,0,.789-.789A.708.708,0,0,0,21.789-12,.708.708,0,0,0,21-11.211Z" transform="translate(-12.708 -70.103)" fill="#e94d65"/>
    <path id="Path_10" data-name="Path 10" d="M29-11.211a.708.708,0,0,0,.789.789.708.708,0,0,0,.789-.789A.708.708,0,0,0,29.789-12,.708.708,0,0,0,29-11.211Z" transform="translate(-17.551 -70.103)" fill="#e94d65"/>
    <path id="Path_11" data-name="Path 11" d="M99-11.211c0,.789.2.828,3.235.71,2.762-.118,3.275-.237,3.393-.828S105.391-12,102.393-12C99.237-12,99-11.961,99-11.211Z" transform="translate(-59.935 -70.103)" fill="#e94d65"/>
  </g>
</svg>
