<svg xmlns="http://www.w3.org/2000/svg" width="50" height="50" viewBox="0 0 50 50">
  <g id="electrical_Fire" data-name="electrical&amp;Fire" transform="translate(-2.01 109.826)">
    <path id="Path_12" data-name="Path 12" d="M2.288-109.538c-.444.547-.323,7.72.121,8.1a3.938,3.938,0,0,1,.4,2.19,4.351,4.351,0,0,0,.4,2.19,3.938,3.938,0,0,1,.4,2.19,4.351,4.351,0,0,0,.4,2.19c.242.219.4,4.927.4,12.264,0,11.607-.04,11.99-.807,12.264s-.847.657-.726,4.325l.121,4H42.937l.121-4c.121-3.668.04-4.051-.726-4.325-.686-.219-.807-.712-.807-2.9v-2.573l2.057-.274c2.137-.274,3.589-1.423,4.96-3.942.726-1.259.887-2.464.968-7.336.161-5.584.2-5.858,1.331-7.282,1.008-1.259,1.169-1.916,1.169-4.216,0-1.533-.161-2.956-.4-3.121a2.311,2.311,0,0,1-.4-1.423c0-.657-.282-1.04-.807-1.04s-.807.383-.807,1.095-.282,1.095-.807,1.095-.807-.383-.807-1.095-.282-1.095-.807-1.095-.807.383-.807,1.04a2.075,2.075,0,0,1-.4,1.423,7.993,7.993,0,0,0-.4,3.121c0,2.354.161,2.956,1.25,4.325l1.25,1.588L47.9-85.284c-.121,5.256-.161,5.53-1.371,7.172a4.16,4.16,0,0,1-3.145,1.971l-1.855.328v-8.267c0-4.927.161-8.377.4-8.6a3.938,3.938,0,0,0,.4-2.19,4.351,4.351,0,0,1,.4-2.19,4.249,4.249,0,0,0,.4-2.135,5.659,5.659,0,0,1,.4-2.3,12.945,12.945,0,0,0,.323-4.38l-.121-3.778-20.606-.164C11.805-109.866,2.409-109.757,2.288-109.538Zm40.044,4v2.19H3.619v-4.38H42.332Zm-.807,5.475c0,1.095-.282,1.095-18.55,1.095s-18.55,0-18.55-1.095.282-1.095,18.55-1.095S41.525-101.161,41.525-100.066Zm8.791,3.887c-.242,3.5-2.823,3.5-3.065,0-.121-1.642-.081-1.7,1.532-1.7S50.437-97.821,50.316-96.179Zm-40.245.493c0,.985-.282,1.095-2.42,1.095s-2.42-.11-2.42-1.095.282-1.1,2.42-1.1S10.071-96.672,10.071-95.686Zm24.2.766a4.621,4.621,0,0,0,.4,2.245c.242.219.4,4.927.4,12.373,0,11.607-.04,11.99-.807,11.99s-.807-.438-.887-11.935l-.121-11.881H12.692l-.121,11.881c-.081,11.5-.121,11.935-.887,11.935s-.807-.383-.807-11.99c0-7.446.161-12.154.4-12.373a4.176,4.176,0,0,0,.4-2.245v-1.861H34.267Zm6.452-.766c0,.985-.282,1.095-2.42,1.095s-2.42-.11-2.42-1.095.282-1.1,2.42-1.1S40.719-96.672,40.719-95.686ZM9.265-80.356v12.045H6.038V-92.4H9.265Zm30.648,0v12.045H36.686V-92.4h3.226Zm-8.065,1.095v10.95H29.064l.6-1.916c1.29-4.27.282-7.72-3.629-12.319-1.573-1.807-3.024-3.23-3.226-3.121a3.944,3.944,0,0,0-.686,2.135,10.657,10.657,0,0,1-1.089,3.449,6.554,6.554,0,0,0-.887,2.245c0,1.369-.726.821-1.169-.876-.524-2.08-.968-2.08-2.1.055a10.692,10.692,0,0,0-.444,8.267l.807,2.08H14.1v-21.9H31.847Zm-4.678,1.15a8.04,8.04,0,0,1,.363,8.486c-.565,1.2-.847,1.314-4.355,1.314-3.589,0-3.791-.055-4.6-1.478A7.536,7.536,0,0,1,17.491-75.1l.242-1.369L18.822-75.1c1.371,1.752,2.218,1.478,2.621-.821a20.413,20.413,0,0,1,1.411-3.942L23.862-82,24.992-80.9A15.754,15.754,0,0,1,27.169-78.112Zm14.356,14.18v2.19H4.425v-4.38h37.1Z" transform="translate(0 0)" fill="#e94d65"/>
  </g>
</svg>
