<svg xmlns="http://www.w3.org/2000/svg" width="50" height="50" viewBox="0 0 50 50">
  <g id="busbar" transform="translate(0.044 127.882)">
    <path id="Path_22" data-name="Path 22" d="M21.442-127.342a12.477,12.477,0,0,0-6.168,5.2c-.937,1.642-1.054,2.229-1.054,5.356v3.558l-6.011,2.893c-3.279,1.6-6.129,2.971-6.324,3.05s-.351-.743-.351-1.8V-111l5.27-2.5c3.865-1.8,5.27-2.659,5.27-3.167,0-.391-.234-.7-.468-.7a64.706,64.706,0,0,0-5.972,2.854L.168-111.7v2.932c0,2.7.078,2.932.859,3.05a3.974,3.974,0,0,0,2.03-.508l1.21-.626v24.631l-2.03.117-2.069.117L.051-80.5c-.234,2.776-1.8,2.62,24.9,2.62s25.139.156,24.9-2.62l-.117-1.486-2.03-.117-2.03-.117-.117-3.01c-.078-2.346-.234-3.01-.7-3.01s-.625.665-.7,3.01l-.117,3.05H25.736v-2.7c0-2.58.039-2.7,1.132-3.167a7.415,7.415,0,0,0,2.225-1.6c1.093-1.134,1.132-1.29,1.132-5.356v-4.183l-1.054-.117c-.859-.117-1.093-.352-1.093-1.056,0-1.329-.39-2.15-1.015-2.15-.39,0-.546.469-.546,1.564v1.564H23.394v-1.564c0-1.095-.156-1.564-.546-1.564-.625,0-1.015.821-1.015,2.15,0,.7-.234.938-1.054,1.056l-1.093.117v4.183c0,4.066.039,4.222,1.132,5.356a7.415,7.415,0,0,0,2.225,1.6c1.093.469,1.132.586,1.132,3.167v2.7H5.828V-107.6l4.606-2.189L15-111.938l.586.9a10.248,10.248,0,0,0,4.567,4.105c5.114,2.5,10.891.821,14.17-4.105l.586-.9,4.567,2.15,4.606,2.189.078,8.68c.117,7.428.2,8.719.7,8.719s.586-1.212.7-8.328l.078-8.289,1.21.586a3.974,3.974,0,0,0,2.03.508c.781-.117.859-.391.976-2.932.117-3.362.7-2.854-7.807-6.959-5.972-2.893-5.972-2.893-6.636-4.692A11.086,11.086,0,0,0,21.442-127.342Zm7.846,2.072c8.7,4.535,5.894,17.242-3.943,17.985-1.835.117-2.5-.039-4.684-1.173a7.269,7.269,0,0,1-3.747-3.362A11.91,11.91,0,0,1,15.47-115.5,9.549,9.549,0,0,1,29.289-125.27Zm13.194,11.495L48.377-111v1.916a4.567,4.567,0,0,1-.2,1.877c-.078,0-2.928-1.368-6.324-3.01-3.4-1.681-6.207-3.05-6.246-3.05a8.284,8.284,0,0,1,.664-3.323C36.471-116.59,39.243-115.339,42.483-113.775ZM29.25-95.791c0,4.379-1.444,6.568-4.294,6.568s-4.294-2.189-4.294-6.568v-2.033H29.25ZM48.377-80.034c0,.508-2.85.586-23.421.586s-23.421-.078-23.421-.586,2.85-.586,23.421-.586S48.377-80.543,48.377-80.034Z" transform="translate(0 0)" fill="#e94d65"/>
    <path id="Path_23" data-name="Path 23" d="M53.2-115.847c-2.1,2.139-3.078,3.34-2.928,3.753A5.6,5.6,0,0,0,52-110.555l1.5.938-.788,2.064c-.638,1.689-.676,2.177-.3,2.627.863,1.051,1.764.6,5.067-2.552,3.716-3.491,3.866-4.054,1.314-5.48a6.817,6.817,0,0,1-1.5-.976c0-.075.338-.938.751-1.914.938-2.139.713-3.153-.676-3.153C56.581-119,55.6-118.249,53.2-115.847Zm3.34.075a9.861,9.861,0,0,0-.751,2.214c0,.263.751.938,1.689,1.464a10.213,10.213,0,0,1,1.689,1.126,36.972,36.972,0,0,1-2.853,2.665l-2.853,2.552.676-1.464c1.088-2.477.938-3.19-.938-4.241l-1.651-.9,2.627-2.59a31.257,31.257,0,0,1,2.853-2.552C57.181-117.5,56.918-116.71,56.543-115.772Z" transform="translate(-30.463 -5.549)" fill="#e94d65"/>
  </g>
</svg>
