<svg xmlns="http://www.w3.org/2000/svg" width="50" height="50" viewBox="0 0 50 50">
  <g id="fireDetection" transform="translate(-0.232 127.922)">
    <path id="Path_24" data-name="Path 24" d="M25.549-127.248c-11.745,3.091-18.009,17.3-12.215,27.9l.979,1.878-4.62,4.422C7.11-90.581,4.174-87.8,3.156-86.864.768-84.711-.015-83.264.3-81.463a4.142,4.142,0,0,0,5.716,3.209,12.178,12.178,0,0,0,3.015-2.5c1.018-1.1,3.837-4.07,6.3-6.652l4.424-4.618,1.879.978A19.13,19.13,0,0,0,35.1-89.407c15.073-3.913,20.2-21.836,9.318-32.715A19.191,19.191,0,0,0,25.549-127.248Zm11.04,2.387c5.716,1.957,9.513,6.183,11.118,12.366C50.8-100.56,40.113-89.016,27.9-91.09a16.614,16.614,0,0,1-9.592-4.931,17.384,17.384,0,0,1-.431-24.379,17.7,17.7,0,0,1,10.061-5.361A23.26,23.26,0,0,1,36.589-124.861ZM17.054-92.147,16-90.894l-1.409-1.33-1.449-1.37,1.253-1.1,1.214-1.135,1.253,1.213L18.111-93.4Zm-3.915,1.252a4.432,4.432,0,0,1,1.1,1.409c0,.665-8.417,9.313-9.318,9.509A2.363,2.363,0,0,1,2.1-82.05c0-.783,1.018-2,4.62-5.439a57.42,57.42,0,0,1,4.933-4.461A3.832,3.832,0,0,1,13.139-90.894Z" transform="translate(0 0)" fill="#e94d65"/>
    <path id="Path_25" data-name="Path 25" d="M49.641-117.414a15.269,15.269,0,0,0-11.12,17.469A14.56,14.56,0,0,0,50.693-88.074a14.9,14.9,0,0,0,15.553-7.438,14.634,14.634,0,0,0,.263-13.862A14.441,14.441,0,0,0,54-117.639,20.777,20.777,0,0,0,49.641-117.414Zm9.392,3.005a12.7,12.7,0,0,1,6.086,6.349c.826,1.728.977,2.667,1.014,5.3,0,2.855-.113,3.456-1.24,5.71a12.9,12.9,0,0,1-6.424,6.274,13.978,13.978,0,0,1-10.594,0,12.9,12.9,0,0,1-6.424-6.274c-1.127-2.254-1.24-2.855-1.24-5.71a10.527,10.527,0,0,1,.977-5.259A13.033,13.033,0,0,1,59.033-114.408Z" transform="translate(-21.704 -6.405)" fill="#e94d65"/>
    <path id="Path_26" data-name="Path 26" d="M66.184-98.8a20.685,20.685,0,0,1-2.555,3.456C61.376-92.75,61-91.961,61-89.519a6.081,6.081,0,0,0,6.386,6.048c3.907,0,6.386-2.555,6.386-6.574,0-2.818-.676-4.02-1.841-3.268-.751.413-.789.376-.789-1.089a6.47,6.47,0,0,0-.413-2.329C70.054-98.047,68.063-100,67.386-100,67.048-100,66.522-99.437,66.184-98.8Zm2.555,2.367a3.364,3.364,0,0,1,.413,2.329c-.526,3.531-.6,3.306,1.165,3.268l1.578-.038v1.5a3.274,3.274,0,0,1-1.277,2.742,3.405,3.405,0,0,1-3.231,1.277,3.405,3.405,0,0,1-3.231-1.277,3.4,3.4,0,0,1-1.277-3.118c0-1.728.15-2.029,2.254-4.47a18.187,18.187,0,0,0,2.254-2.893C67.386-97.708,68.138-97.333,68.739-96.431Z" transform="translate(-36.629 -16.766)" fill="#e94d65"/>
  </g>
</svg>
