<svg xmlns="http://www.w3.org/2000/svg" width="50" height="50" viewBox="0 0 50 50">
  <g id="home_HotelAutomation" data-name="home&amp;HotelAutomation" transform="translate(0 128)">
    <path id="Path_29" data-name="Path 29" d="M35.4-127.475c-.113.338.3,1.012,1.05,1.688l1.237,1.125-13.537.037H10.613l-.788.863c-.637.675-.825,1.35-.825,2.925a6.16,6.16,0,0,0,.262,2.325c.525.563,1.238-.675,1.238-2.138a3.654,3.654,0,0,1,.45-2.025c.338-.337,3.863-.45,13.575-.45H37.688l-1.2.975c-1.312,1.013-1.613,2.025-.638,2.025.638,0,5.025-3.3,5.025-3.787,0-.412-4.425-4.088-4.912-4.088C35.775-128,35.513-127.775,35.4-127.475Z" transform="translate(-5.625)" fill="#e94d65"/>
    <path id="Path_30" data-name="Path 30" d="M102.469-118.738c-.562.525.675,1.238,2.137,1.238a3.654,3.654,0,0,1,2.025.45c.338.338.45,3.863.45,13.613v13.125l-.975-1.238c-1.012-1.275-2.025-1.575-2.025-.6,0,.638,3.3,5.025,3.787,5.025.413,0,4.088-4.425,4.088-4.912,0-.937-1.162-.675-2.213.487l-1.125,1.238-.037-13.537v-13.537l-.862-.788c-.675-.637-1.35-.825-2.925-.825A6.16,6.16,0,0,0,102.469-118.738Z" transform="translate(-61.957 -5.625)" fill="#e94d65"/>
    <path id="Path_31" data-name="Path 31" d="M40.34-105.609c-1.088,1.162-1.37,1.275-2.74,1.05-2.1-.3-3.223.675-2.9,2.587.2,1.238.081,1.538-1.168,2.7a4.467,4.467,0,0,0-1.41,2.1,3.249,3.249,0,0,0,2.055,2.325c.363.113.524.713.483,1.875-.121,2.438.524,3.075,3.143,3.15,1.33,0,2.216.225,2.3.525a4.84,4.84,0,0,0,.927,1.162,2.368,2.368,0,0,1,.766,1.463c0,.713-.282.75-4.271.75a20.892,20.892,0,0,0-5,.375,2.472,2.472,0,0,0-1.007,1.5c-.2.825-.483,1.125-1.168,1.125-1.853,0-2.3.75-2.176,3.563l.121,2.625,3.545.113c2.3.075,3.787-.038,4.15-.338.363-.263.564-1.2.564-2.625,0-2.4-.645-3.338-2.256-3.338-.685,0-.967-.187-.967-.75,0-.713.282-.75,4.23-.75s4.23.037,4.23.75c0,.563-.282.75-1.128.75-1.692,0-2.5,1.05-2.5,3.15,0,3,.282,3.225,4.432,3.225,4.11,0,4.432-.225,4.432-3.075,0-2.1-.886-3.3-2.458-3.3-.886,0-1.168-.187-1.168-.75,0-.713.282-.75,4.23-.75s4.23.037,4.23.75c0,.563-.282.75-.967.75-1.612,0-2.256.938-2.256,3.338,0,1.425.2,2.362.564,2.625.363.3,1.853.412,4.15.338l3.545-.113.121-2.625c.121-2.812-.322-3.562-2.176-3.562-.685,0-.967-.3-1.168-1.125a2.472,2.472,0,0,0-1.007-1.5,20.892,20.892,0,0,0-5-.375c-3.989,0-4.271-.037-4.271-.75a2.368,2.368,0,0,1,.766-1.463,4.84,4.84,0,0,0,.927-1.162c.081-.3.967-.525,2.3-.525,2.619-.075,3.263-.713,3.143-3.15-.04-1.162.121-1.762.483-1.875a3.249,3.249,0,0,0,2.055-2.325,4.467,4.467,0,0,0-1.41-2.1c-1.249-1.162-1.37-1.463-1.168-2.7.322-1.912-.806-2.887-2.9-2.587-1.33.225-1.612.075-2.78-1.05C43.16-107.3,41.952-107.3,40.34-105.609Zm3.062,1.125c0,.825,2.3,1.762,3.948,1.613,1.45-.113,1.491-.075,1.37,1.162-.161,1.575.564,3.338,1.571,3.6.886.262,1.048,1.688.161,1.688-.927,0-2.176,2.625-1.732,3.713.443,1.162-.121,1.762-1.209,1.2-1.048-.525-3.707.45-3.989,1.5a.962.962,0,0,1-1.853,0c-.282-1.05-2.941-2.025-3.989-1.5-1.088.563-1.652-.037-1.209-1.2.443-1.088-.806-3.713-1.732-3.713-.886,0-.725-1.425.161-1.687,1.007-.262,1.732-2.025,1.571-3.6-.121-1.238-.081-1.275,1.37-1.162,1.652.15,3.948-.788,3.948-1.613,0-.3.363-.562.806-.562S43.4-104.784,43.4-104.484ZM34.941-79.547v1.5H29.7v-3h5.238Zm10.072,0v1.5H40.179v-3h4.835Zm10.475,0v1.5H50.251v-3h5.238Z" transform="translate(-17.596 -12.307)" fill="#e94d65"/>
    <path id="Path_32" data-name="Path 32" d="M53.662-93.325A5.5,5.5,0,0,0,51-89.125c0,2.25,2.513,4.688,4.875,4.688s4.875-2.437,4.875-4.687A5.435,5.435,0,0,0,55.875-94,5.686,5.686,0,0,0,53.662-93.325Zm3.375,1.2c.825,0,1.838,1.575,1.838,2.887a2.885,2.885,0,0,1-3,3.113c-3.225,0-4.312-4.537-1.388-5.812a3.5,3.5,0,0,1,1.688-.375A3,3,0,0,0,57.037-92.125Z" transform="translate(-30.875 -20.587)" fill="#e94d65"/>
    <path id="Path_33" data-name="Path 33" d="M1.875-91.713A13.2,13.2,0,0,0,0-89.088c0,.938,1.163.675,2.213-.487l1.125-1.238.037,13.537v13.538l.863.787c.675.638,1.35.825,2.925.825,2.25,0,2.663-.15,2.325-.975-.113-.338-.787-.525-1.95-.525a4.142,4.142,0,0,1-2.213-.45c-.337-.338-.45-3.863-.45-13.575V-90.812l.975,1.2C6.863-88.3,7.875-88,7.875-88.975c0-.638-3.3-5.025-3.787-5.025A11.117,11.117,0,0,0,1.875-91.713Z" transform="translate(0 -19.25)" fill="#e94d65"/>
    <path id="Path_34" data-name="Path 34" d="M64.863-25.445c-.3.112-.488.862-.488,1.95a4.142,4.142,0,0,1-.45,2.212c-.338.338-3.863.45-13.575.45H37.188l1.237-.975c1.275-1.012,1.575-2.025.6-2.025-.638,0-5.025,3.3-5.025,3.788,0,.413,4.425,4.087,4.912,4.087.938,0,.675-1.163-.487-2.212l-1.237-1.125,13.537-.038H64.262l.788-.862c.637-.675.825-1.35.825-3C65.875-25.332,65.688-25.745,64.863-25.445Z" transform="translate(-19.25 -62.043)" fill="#e94d65"/>
  </g>
</svg>
