<svg xmlns="http://www.w3.org/2000/svg" width="50.191" height="50" viewBox="0 0 50.191 50">
  <g id="lightingProtection" transform="translate(-38 122.001)">
    <path id="Path_27" data-name="Path 27" d="M43.488-121.508c-1.255,1.083.869,1.477,7.915,1.477h7.336L54.1-117.521c-5.116,2.757-5.116,2.806.965,4.628,1.544.492,1.544.64-.483,2.363l-2.22,1.871,2.22,1.182c2.413,1.28,4.826,1.625,4.826.689,0-.345-.772-.886-1.641-1.182-1.641-.591-1.544-.788.483-2.609,2.8-2.511,2.7-2.806-.772-3.545-1.544-.345-2.9-.738-2.9-.935a26.332,26.332,0,0,1,4.633-2.658c3.378-1.723,5.405-2.314,7.432-2.314,3.475,0,5.791-.689,4.923-1.428C70.706-122.148,44.356-122.2,43.488-121.508Z" transform="translate(-0.179)" fill="#e94d65"/>
    <path id="Path_28" data-name="Path 28" d="M61.165-90.183c0,.695-.483.776-2.413.572s-2.413-.082-2.413.531c0,.45,1.062,1.022,2.413,1.267,1.834.368,2.413.776,2.413,1.716v1.226H38v28.608H88.191V-84.87H65.026V-86.1c0-.94.579-1.349,2.413-1.716,1.351-.245,2.413-.817,2.413-1.267,0-.613-.483-.736-2.413-.531s-2.413.123-2.413-.572c0-.531-.676-.817-1.93-.817S61.165-90.714,61.165-90.183ZM49.486-81.641c2.027.531.386,1.267-2.9,1.267-1.737,0-2.8-.2-2.8-.572C43.791-81.886,47.073-82.254,49.486-81.641Zm7.239-.123c2.606.409,1.834,1.39-1.158,1.39-3.378,0-4.343-.368-2.992-1.1C53.829-82.091,54.5-82.132,56.725-81.764Zm9.073.654c.29.572-.29.736-2.606.736-2.8,0-3.957-.695-2.316-1.39C62.13-82.3,65.508-81.8,65.8-81.11Zm7.722,0c.29.572-.29.736-2.606.736-2.8,0-3.957-.695-2.316-1.39C69.852-82.3,73.23-81.8,73.52-81.11Zm7.818-.368c1.351.736.386,1.1-2.992,1.1-4.15,0-3.378-1.471.772-1.594A5.454,5.454,0,0,1,81.338-81.478Zm-31.852,2.7c.676.2.965.572.676.817-.869.572-5.116.613-5.888.041C42.826-78.944,46.59-79.557,49.486-78.78Zm8.59.531c.29.572-.29.736-2.51.736q-5.067,0-2.9-1.1C54.119-79.393,57.69-79.107,58.076-78.249Zm7.722,0c.29.572-.29.736-2.606.736-2.8,0-3.957-.695-2.316-1.39C62.13-79.434,65.508-78.944,65.8-78.249Zm7.722,0c.29.572-.29.736-2.606.736-2.8,0-3.957-.695-2.316-1.39C69.852-79.434,73.23-78.944,73.52-78.249Zm7.818-.531c.676.2.965.572.676.817-.869.572-5.116.613-5.888.041C74.678-78.944,78.442-79.557,81.338-78.78ZM50.065-75.47c0,.736-4.15,1.063-5.5.49-1.544-.654.193-1.349,2.9-1.226C49-76.124,50.065-75.838,50.065-75.47Zm7.722,0c0,.736-4.15,1.063-5.5.49-1.544-.654.193-1.349,2.9-1.226C56.725-76.124,57.787-75.838,57.787-75.47Zm8.011.082c.29.572-.29.736-2.606.736-2.8,0-3.957-.695-2.316-1.39C62.13-76.574,65.508-76.083,65.8-75.388Zm7.722,0c.29.572-.29.736-2.606.736-2.8,0-3.957-.695-2.316-1.39C69.852-76.574,73.23-76.083,73.52-75.388Zm8.4-.082c0,.736-4.15,1.063-5.5.49-1.544-.654.193-1.349,2.9-1.226C80.855-76.124,81.917-75.838,81.917-75.47ZM50.065-72.609c0,.736-4.15,1.063-5.5.49-1.544-.654.193-1.349,2.9-1.226C49-73.263,50.065-72.977,50.065-72.609Zm7.722,0c0,.736-4.15,1.063-5.5.49-1.544-.654.193-1.349,2.9-1.226C56.725-73.263,57.787-72.977,57.787-72.609Zm8.011.082c.29.572-.29.736-2.606.736-2.413,0-2.992-.163-2.992-.858,0-.654.483-.817,2.606-.695C64.447-73.263,65.6-72.936,65.8-72.528Zm7.915-.082c0,.654-.676.817-2.9.817-1.737,0-2.9-.2-2.9-.531,0-.817.965-1.1,3.571-1.1C73.037-73.427,73.713-73.181,73.713-72.609Zm8.2,0c0,.736-4.15,1.063-5.5.49-1.544-.654.193-1.349,2.9-1.226C80.855-73.263,81.917-72.977,81.917-72.609Z" transform="translate(0 -15.739)" fill="#e94d65"/>
  </g>
</svg>
