<svg xmlns="http://www.w3.org/2000/svg" width="50" height="50" viewBox="0 0 50 50">
  <g id="noc" transform="translate(-1 128)">
    <path id="Path_13" data-name="Path 13" d="M5.907-123.2,1-118.391v38.125l1.157,1.133L3.314-78H38.98l1.157-1.133a3.208,3.208,0,0,0,1.157-2.5,3.066,3.066,0,0,0-.279-1.562c-.479-.469-1.317.586-1.317,1.641a2.4,2.4,0,0,1-.479,1.523c-.359.352-4.947.469-18.112.469-15.878,0-17.673-.078-18.152-.664-.439-.508-.559-3.984-.559-18.828v-18.2l3.989-.117c5.306-.156,5.386-.234,5.386-5.234v-3.828H25.3c10.692,0,13.6.117,13.923.508.279.313.519,2.813.559,6.172.12,5,.2,5.625.838,5.742s.678-.352.678-5.781v-5.937l-1.157-1.133L38.98-128H10.814Zm3.79,4.219c-.638.43-5.9.469-5.9.078A26.984,26.984,0,0,1,6.9-122.258L9.976-125.3l.12,3.008C10.176-120.148,10.056-119.172,9.7-118.977Z" fill="#e94d65"/>
    <path id="Path_14" data-name="Path 14" d="M39.659-114.49c-.742.742-.82,3.242-.117,4.219a1.781,1.781,0,0,0,1.836.547c1.563-.117,1.68-.82.2-1.016-.82-.117-.977-.312-.977-1.484v-1.328H56.261l-.117,1.25-.117,1.289-5.547.117c-4.648.078-5.586.2-5.586.7,0,.469.9.547,6.172.469l6.133-.117.117-2.07a4.942,4.942,0,0,0-.352-2.656C56.261-115.428,40.519-115.389,39.659-114.49Z" transform="translate(-22.786 -7.806)" fill="#e94d65"/>
    <path id="Path_15" data-name="Path 15" d="M82.144-86.219a4.311,4.311,0,0,1-2.344.781c-1.68,0-3.4,1.289-3.4,2.539a2.345,2.345,0,0,1-1.172,1.758c-1.719,1.211-2.07,2.109-1.562,3.711a3.575,3.575,0,0,1,0,2.7c-.508,1.6.234,3.516,1.563,3.945a1.791,1.791,0,0,1,1.055,1.406,4.466,4.466,0,0,0,1.328,2.109c1.094.9,1.133,1.094,1.133,4.1,0,4.8.7,5.547,3.672,3.75l1.563-.937,1.523.977a4.672,4.672,0,0,0,2.344.82c.82-.117.859-.352.977-4.023.117-3.867.117-3.906,1.25-4.57a2.614,2.614,0,0,0,1.406-1.836,4.366,4.366,0,0,1,1.6-2.227c1.25-.977,1.328-1.133,1.133-2.656a9.77,9.77,0,0,1,0-4.258c.234-1.328.117-1.562-1.172-2.734a4.407,4.407,0,0,1-1.406-1.992c0-1.211-1.8-2.578-3.32-2.578a4.167,4.167,0,0,1-2.422-.781A3.793,3.793,0,0,0,84.019-87,3.793,3.793,0,0,0,82.144-86.219Zm3.125,1.563a4.291,4.291,0,0,0,2.461.781c1.6,0,2.109.43,2.5,2.031a2.863,2.863,0,0,0,1.367,1.68c1.406.7,1.563,1.133,1.055,3.008a4.214,4.214,0,0,0,.039,2.7c.43,1.133.391,1.289-.9,2.461a6.093,6.093,0,0,0-1.641,2.383c-.312,1.055-.508,1.172-2.109,1.289a3.519,3.519,0,0,0-2.461.9,2.014,2.014,0,0,1-3.008.078A5.507,5.507,0,0,0,80-68.25c-1.68-.2-1.875-.312-2.266-1.523a6.181,6.181,0,0,0-1.719-2.383c-1.25-1.016-1.25-1.055-.742-2.461a3.4,3.4,0,0,0,0-2.891c-.508-1.406-.508-1.445.781-2.5a6.365,6.365,0,0,0,1.719-2.344c.43-1.211.586-1.328,2.227-1.445a3.519,3.519,0,0,0,2.461-.9C83.355-85.633,84.019-85.633,85.269-84.656Zm-3.2,18.75a2.7,2.7,0,0,0,1.758.781,4,4,0,0,0,2.07-.781c1.641-1.289,1.836-1.055,1.836,2.539a10.135,10.135,0,0,1-.273,3.32,5.39,5.39,0,0,1-1.484-.781c-1.484-.977-2.422-.977-4.023,0a9.835,9.835,0,0,1-1.445.781,13.683,13.683,0,0,1-.2-3.32C80.308-66.922,80.659-67.469,82.066-65.906Z" transform="translate(-43.311 -24.984)" fill="#e94d65"/>
    <path id="Path_16" data-name="Path 16" d="M89.116-74.175c-5,1.8-5.7,7.7-1.328,10.937a6.19,6.19,0,0,0,6.719-.312C99.936-67.691,95.483-76.441,89.116-74.175Zm3.789,1.6c3.281,1.563,3.438,6.563.234,8.2A4.633,4.633,0,0,1,86.5-69.6,4.446,4.446,0,0,1,92.9-72.574Z" transform="translate(-50.283 -32.575)" fill="#e94d65"/>
    <path id="Path_17" data-name="Path 17" d="M15.273-82.727a1.1,1.1,0,0,0-.273.781c0,.391,1.914.508,9.883.508a96.841,96.841,0,0,0,10.156-.273c.156-.117.078-.469-.156-.781-.352-.391-2.461-.508-9.922-.508A88.516,88.516,0,0,0,15.273-82.727Z" transform="translate(-8.531 -27.422)" fill="#e94d65"/>
    <path id="Path_18" data-name="Path 18" d="M15-68.333c0,.508,1.25.586,10.078.508,6.367-.078,10.039-.273,10.039-.508s-3.672-.43-10.039-.508C16.25-68.919,15-68.841,15-68.333Z" transform="translate(-8.531 -36.034)" fill="#e94d65"/>
    <path id="Path_19" data-name="Path 19" d="M15-55.333c0,.508,1.25.586,10.078.508,6.367-.078,10.039-.273,10.039-.508s-3.672-.43-10.039-.508C16.25-55.919,15-55.841,15-55.333Z" transform="translate(-8.531 -43.956)" fill="#e94d65"/>
    <path id="Path_20" data-name="Path 20" d="M15.183-42.336c.117.664.9.7,9.883.7s9.766-.039,9.883-.7c.117-.625-.547-.664-9.883-.664S15.066-42.961,15.183-42.336Z" transform="translate(-8.636 -51.797)" fill="#e94d65"/>
    <path id="Path_21" data-name="Path 21" d="M15.271-23.609c-.586.938.469,1.172,5.234,1.172a34.1,34.1,0,0,0,5.234-.234.885.885,0,0,0,0-.781c-.156-.43-1.289-.547-5.2-.547C17.615-24,15.427-23.844,15.271-23.609Z" transform="translate(-8.607 -63.375)" fill="#e94d65"/>
  </g>
</svg>
